<svg width="145" height="31" viewBox="0 0 145 31" fill="none" xmlns="http://www.w3.org/2000/svg">
<path d="M8.294 6.592H11.596L13.676 12.702L15.756 6.592H19.084L15.938 14.99L18.278 20.892L23.504 6.54H27.404L19.89 25H16.874L13.676 17.252L10.478 25H7.462L0 6.54H3.848L9.1 20.892L11.388 14.99L8.294 6.592ZM34.3793 25.26C33.2873 25.26 32.2993 25.078 31.4153 24.714C30.5313 24.3327 29.7773 23.8213 29.1533 23.18C28.5293 22.5387 28.044 21.7933 27.6973 20.944C27.368 20.0947 27.2033 19.202 27.2033 18.266C27.2033 17.2953 27.368 16.3853 27.6973 15.536C28.0266 14.6693 28.5033 13.9153 29.1273 13.274C29.7513 12.6153 30.5053 12.0953 31.3893 11.714C32.2906 11.3327 33.296 11.142 34.4053 11.142C35.5146 11.142 36.5026 11.3327 37.3693 11.714C38.2533 12.0953 38.9986 12.6067 39.6053 13.248C40.2293 13.8893 40.6973 14.6347 41.0093 15.484C41.3386 16.3333 41.5033 17.2173 41.5033 18.136C41.5033 18.3613 41.4946 18.578 41.4773 18.786C41.4773 18.994 41.46 19.1673 41.4253 19.306H30.8953C30.9473 19.8433 31.0773 20.32 31.2853 20.736C31.4933 21.152 31.762 21.5073 32.0913 21.802C32.4206 22.0967 32.7933 22.322 33.2093 22.478C33.6253 22.634 34.0586 22.712 34.5093 22.712C35.2026 22.712 35.8526 22.5473 36.4593 22.218C37.0833 21.8713 37.508 21.4207 37.7333 20.866L40.7233 21.698C40.2206 22.738 39.4146 23.596 38.3053 24.272C37.2133 24.9307 35.9046 25.26 34.3793 25.26ZM37.9153 17.044C37.8286 16.0213 37.4473 15.2067 36.7713 14.6C36.1126 13.976 35.3066 13.664 34.3533 13.664C33.8853 13.664 33.4433 13.7507 33.0273 13.924C32.6286 14.08 32.2733 14.3053 31.9613 14.6C31.6493 14.8947 31.3893 15.25 31.1813 15.666C30.9906 16.082 30.878 16.5413 30.8433 17.044H37.9153ZM52.1538 25.26C51.1138 25.26 50.1864 25.026 49.3718 24.558C48.5571 24.09 47.9158 23.4487 47.4478 22.634V25H44.4058V6.02H47.8898V13.768C48.3751 12.936 49.0078 12.2947 49.7878 11.844C50.5851 11.376 51.5124 11.142 52.5698 11.142C53.4538 11.142 54.2598 11.3327 54.9878 11.714C55.7158 12.0953 56.3398 12.6067 56.8598 13.248C57.3971 13.8893 57.8044 14.6433 58.0818 15.51C58.3764 16.3767 58.5238 17.2867 58.5238 18.24C58.5238 19.228 58.3591 20.1467 58.0298 20.996C57.7178 21.8453 57.2758 22.5907 56.7038 23.232C56.1318 23.856 55.4558 24.35 54.6758 24.714C53.8958 25.078 53.0551 25.26 52.1538 25.26ZM51.1918 22.296C51.7464 22.296 52.2578 22.192 52.7258 21.984C53.1938 21.7587 53.5924 21.464 53.9218 21.1C54.2511 20.736 54.5024 20.3113 54.6758 19.826C54.8664 19.3407 54.9618 18.8207 54.9618 18.266C54.9618 17.7113 54.8751 17.1827 54.7018 16.68C54.5284 16.1773 54.2771 15.7353 53.9478 15.354C53.6358 14.9727 53.2631 14.6693 52.8298 14.444C52.3964 14.2187 51.9198 14.106 51.3998 14.106C50.6198 14.106 49.9178 14.366 49.2938 14.886C48.6871 15.3887 48.2191 16.0127 47.8898 16.758V20.008C48.0111 20.3547 48.1844 20.6667 48.4098 20.944C48.6524 21.2213 48.9211 21.464 49.2158 21.672C49.5104 21.8627 49.8311 22.0187 50.1778 22.14C50.5244 22.244 50.8624 22.296 51.1918 22.296Z" fill="#2196F3"/>
<path d="M73.0003 11.376C72.8789 11.2547 72.6536 11.09 72.3243 10.882C72.0123 10.674 71.6223 10.4747 71.1543 10.284C70.7036 10.076 70.2096 9.90267 69.6723 9.764C69.1349 9.62533 68.5889 9.556 68.0343 9.556C67.0463 9.556 66.3096 9.738 65.8243 10.102C65.3389 10.466 65.0963 10.9773 65.0963 11.636C65.0963 12.0173 65.1829 12.338 65.3563 12.598C65.5469 12.8407 65.8156 13.0573 66.1623 13.248C66.5089 13.4387 66.9423 13.612 67.4623 13.768C67.9996 13.924 68.6149 14.0887 69.3083 14.262C70.2096 14.5047 71.0243 14.7647 71.7523 15.042C72.4976 15.3193 73.1216 15.666 73.6243 16.082C74.1443 16.498 74.5429 17.0007 74.8203 17.59C75.0976 18.162 75.2363 18.8727 75.2363 19.722C75.2363 20.71 75.0456 21.5593 74.6643 22.27C74.3003 22.9633 73.7976 23.5267 73.1563 23.96C72.5323 24.3933 71.8043 24.714 70.9723 24.922C70.1576 25.1127 69.2996 25.208 68.3983 25.208C67.0116 25.208 65.6423 25 64.2903 24.584C62.9383 24.168 61.7249 23.5787 60.6503 22.816L62.2363 19.722C62.3923 19.878 62.6696 20.086 63.0683 20.346C63.4843 20.5887 63.9696 20.84 64.5243 21.1C65.0789 21.3427 65.6943 21.5507 66.3703 21.724C67.0463 21.8973 67.7396 21.984 68.4503 21.984C70.4263 21.984 71.4143 21.3513 71.4143 20.086C71.4143 19.6873 71.3016 19.3493 71.0763 19.072C70.8509 18.7947 70.5303 18.552 70.1143 18.344C69.6983 18.136 69.1956 17.9453 68.6063 17.772C68.0169 17.5987 67.3583 17.408 66.6303 17.2C65.7463 16.9573 64.9749 16.6973 64.3163 16.42C63.6749 16.1253 63.1376 15.7873 62.7043 15.406C62.2709 15.0073 61.9416 14.5567 61.7163 14.054C61.5083 13.534 61.4043 12.9187 61.4043 12.208C61.4043 11.272 61.5776 10.44 61.9243 9.712C62.2709 8.984 62.7476 8.37733 63.3543 7.892C63.9783 7.40667 64.6976 7.04267 65.5123 6.8C66.3269 6.54 67.2023 6.41 68.1383 6.41C69.4383 6.41 70.6343 6.618 71.7263 7.034C72.8183 7.43267 73.7716 7.90933 74.5863 8.464L73.0003 11.376ZM86.4013 24.298C85.9333 24.506 85.3613 24.714 84.6853 24.922C84.0093 25.13 83.2986 25.234 82.5533 25.234C82.0679 25.234 81.6086 25.1733 81.1753 25.052C80.7593 24.9307 80.3866 24.74 80.0573 24.48C79.7453 24.2027 79.4939 23.856 79.3033 23.44C79.1126 23.0067 79.0173 22.4867 79.0173 21.88V14.054H77.2233V11.376H79.0173V6.956H82.5013V11.376H85.3613V14.054H82.5013V20.71C82.5013 21.1953 82.6226 21.542 82.8653 21.75C83.1253 21.9407 83.4373 22.036 83.8013 22.036C84.1653 22.036 84.5206 21.9753 84.8673 21.854C85.2139 21.7327 85.4913 21.6287 85.6993 21.542L86.4013 24.298ZM93.1558 25.26C91.7518 25.26 90.6858 24.8093 89.9578 23.908C89.2298 23.0067 88.8658 21.672 88.8658 19.904V11.376H92.3498V19.15C92.3498 21.2473 93.1038 22.296 94.6118 22.296C95.2878 22.296 95.9378 22.0967 96.5618 21.698C97.2031 21.282 97.7231 20.658 98.1218 19.826V11.376H101.606V20.996C101.606 21.36 101.666 21.62 101.788 21.776C101.926 21.932 102.143 22.0187 102.438 22.036V25C102.091 25.0693 101.796 25.1127 101.554 25.13C101.328 25.1473 101.12 25.156 100.93 25.156C100.306 25.156 99.7944 25.0173 99.3958 24.74C99.0144 24.4453 98.7891 24.0467 98.7198 23.544L98.6418 22.452C98.0351 23.388 97.2551 24.09 96.3018 24.558C95.3484 25.026 94.2998 25.26 93.1558 25.26ZM111.49 25.26C110.554 25.26 109.687 25.078 108.89 24.714C108.093 24.35 107.408 23.8473 106.836 23.206C106.264 22.5647 105.813 21.8193 105.484 20.97C105.172 20.1033 105.016 19.176 105.016 18.188C105.016 17.2 105.163 16.2813 105.458 15.432C105.77 14.5827 106.195 13.8373 106.732 13.196C107.269 12.5547 107.911 12.052 108.656 11.688C109.401 11.324 110.216 11.142 111.1 11.142C112.105 11.142 113.007 11.3847 113.804 11.87C114.619 12.3553 115.251 12.988 115.702 13.768V6.02H119.186V20.996C119.186 21.36 119.247 21.62 119.368 21.776C119.489 21.932 119.697 22.0187 119.992 22.036V25C119.385 25.1213 118.891 25.182 118.51 25.182C117.886 25.182 117.375 25.026 116.976 24.714C116.577 24.402 116.352 23.9947 116.3 23.492L116.222 22.634C115.719 23.5007 115.035 24.1593 114.168 24.61C113.319 25.0433 112.426 25.26 111.49 25.26ZM112.4 22.296C112.729 22.296 113.067 22.244 113.414 22.14C113.761 22.0187 114.081 21.854 114.376 21.646C114.671 21.438 114.931 21.1953 115.156 20.918C115.399 20.6407 115.581 20.3373 115.702 20.008V16.758C115.563 16.3767 115.364 16.03 115.104 15.718C114.861 15.3887 114.575 15.1113 114.246 14.886C113.934 14.6433 113.596 14.4527 113.232 14.314C112.885 14.1753 112.539 14.106 112.192 14.106C111.672 14.106 111.187 14.2187 110.736 14.444C110.303 14.6693 109.93 14.9813 109.618 15.38C109.306 15.7613 109.063 16.2033 108.89 16.706C108.717 17.2087 108.63 17.7287 108.63 18.266C108.63 18.838 108.725 19.3667 108.916 19.852C109.107 20.3373 109.367 20.762 109.696 21.126C110.025 21.49 110.415 21.776 110.866 21.984C111.334 22.192 111.845 22.296 112.4 22.296ZM123.386 25V11.376H126.87V25H123.386ZM123.386 9.478V6.02H126.87V9.478H123.386ZM137.085 25.26C135.975 25.26 134.979 25.0693 134.095 24.688C133.211 24.3067 132.457 23.7953 131.833 23.154C131.226 22.4953 130.758 21.7413 130.429 20.892C130.099 20.0427 129.935 19.15 129.935 18.214C129.935 17.2607 130.099 16.3593 130.429 15.51C130.758 14.6607 131.226 13.9153 131.833 13.274C132.457 12.6153 133.211 12.0953 134.095 11.714C134.979 11.3327 135.975 11.142 137.085 11.142C138.194 11.142 139.182 11.3327 140.049 11.714C140.933 12.0953 141.678 12.6153 142.285 13.274C142.909 13.9153 143.385 14.6607 143.715 15.51C144.044 16.3593 144.209 17.2607 144.209 18.214C144.209 19.15 144.044 20.0427 143.715 20.892C143.385 21.7413 142.917 22.4953 142.311 23.154C141.704 23.7953 140.959 24.3067 140.075 24.688C139.191 25.0693 138.194 25.26 137.085 25.26ZM133.523 18.214C133.523 18.8207 133.609 19.3753 133.783 19.878C133.973 20.3633 134.225 20.788 134.537 21.152C134.866 21.516 135.247 21.802 135.681 22.01C136.114 22.2007 136.582 22.296 137.085 22.296C137.587 22.296 138.055 22.2007 138.489 22.01C138.922 21.802 139.295 21.516 139.607 21.152C139.936 20.788 140.187 20.3547 140.361 19.852C140.551 19.3493 140.647 18.7947 140.647 18.188C140.647 17.5987 140.551 17.0527 140.361 16.55C140.187 16.0473 139.936 15.614 139.607 15.25C139.295 14.886 138.922 14.6087 138.489 14.418C138.055 14.21 137.587 14.106 137.085 14.106C136.582 14.106 136.114 14.21 135.681 14.418C135.247 14.626 134.866 14.912 134.537 15.276C134.225 15.64 133.973 16.0733 133.783 16.576C133.609 17.0787 133.523 17.6247 133.523 18.214Z" fill="black"/>
</svg>
